<svg xmlns="http://www.w3.org/2000/svg" viewBox="0 0 500 500">
  <style>
    .st0{fill:#f8f9fa}
    .st1{fill:#e9ecef}
    .st2{fill:#dee2e6}
    .st3{fill:#ced4da}
    .st4{fill:#adb5bd}
    .st5{fill:#6c757d}
    .st6{fill:#495057}
    .st7{fill:#343a40}
    .st8{fill:#007bff}
  </style>
  <g id="BACKGROUND">
    <path class="st1" d="M484.2 424.9H15.8c-4.3 0-7.8-3.5-7.8-7.8V82.9c0-4.3 3.5-7.8 7.8-7.8h468.5c4.3 0 7.8 3.5 7.8 7.8v334.2c-.1 4.3-3.6 7.8-7.9 7.8z"/>
  </g>
  <g id="OBJECTS">
    <path class="st0" d="M52.6 194.1h394.9v186.4H52.6z"/>
    <path class="st2" d="M330.9 380.5H169.1c-1.7 0-3-1.3-3-3V194.1h167.8v183.4c0 1.7-1.3 3-3 3z"/>
    <path class="st3" d="M447.4 380.5H330.9V194.1h119.5c1.7 0 3 1.3 3 3v180.4c0 1.7-1.4 3-3 3z"/>
    <path class="st0" d="M52.6 119.3h394.9v74.8H52.6z"/>
    <path class="st2" d="M330.9 194.1H169.1c-1.7 0-3-1.3-3-3v-71.8h167.8v71.8c0 1.7-1.3 3-3 3z"/>
    <path class="st3" d="M447.4 194.1H330.9v-74.8h119.5c1.7 0 3 1.3 3 3v68.8c0 1.7-1.4 3-3 3z"/>
    <path class="st4" d="M78.9 157.1h31.8v6.4H78.9zM78.9 143.5h54.5v6.4H78.9z"/>
    <circle class="st8" cx="250" cy="287.3" r="65.7"/>
    <path class="st0" d="M250 353c-36.2 0-65.7-29.5-65.7-65.7 0-36.2 29.5-65.7 65.7-65.7 36.2 0 65.7 29.5 65.7 65.7 0 36.2-29.5 65.7-65.7 65.7zm0-124.9c-32.7 0-59.2 26.6-59.2 59.2 0 32.7 26.6 59.2 59.2 59.2 32.7 0 59.2-26.6 59.2-59.2 0-32.6-26.5-59.2-59.2-59.2z"/>
    <path class="st0" d="M228.1 317.5c-1.7 0-3-1.3-3-3v-54.4c0-1.7 1.3-3 3-3s3 1.3 3 3v54.4c0 1.7-1.3 3-3 3zM271.9 317.5c-1.7 0-3-1.3-3-3v-54.4c0-1.7 1.3-3 3-3s3 1.3 3 3v54.4c0 1.7-1.3 3-3 3z"/>
    <path class="st0" d="M271.9 266.1h-43.8c-1.7 0-3-1.3-3-3s1.3-3 3-3h43.8c1.7 0 3 1.3 3 3s-1.3 3-3 3zM271.9 317.5h-43.8c-1.7 0-3-1.3-3-3s1.3-3 3-3h43.8c1.7 0 3 1.3 3 3s-1.3 3-3 3z"/>
    <path class="st7" d="M169.1 380.5c-1.7 0-3-1.3-3-3V119.3c0-1.7 1.3-3 3-3s3 1.3 3 3v258.2c0 1.7-1.3 3-3 3zM330.9 380.5c-1.7 0-3-1.3-3-3V119.3c0-1.7 1.3-3 3-3s3 1.3 3 3v258.2c0 1.7-1.3 3-3 3z"/>
    <path class="st6" d="M447.4 194.1H52.6c-1.7 0-3-1.3-3-3s1.3-3 3-3h394.9c1.7 0 3 1.3 3 3s-1.4 3-3.1 3z"/>
    <path class="st5" d="M78.9 170.7h31.8v6.4H78.9z"/>
  </g>
  <g id="TEXT">
    <path class="st7" d="M146.5 246.9h-15.8l-3.8 10.9h-10.1l17.9-48.2h7.9l18 48.2h-10.2l-3.9-10.9zm-13.4-8.1h11l-5.5-15.6-5.5 15.6zM212.2 257.8l-.2-3.1c-2.7 2.5-6.7 3.8-10.6 3.8-9.4 0-16.1-6.5-16.1-15.8v-24.1h9.3v22.9c0 5.1 3.1 8.3 8.2 8.3 4.4 0 8.2-2.4 9.2-5.9v-25.3h9.3v39.2h-9.1zM272.2 257.8v-24.5c0-4.5-2.4-7.1-6.7-7.1-4.8 0-8.2 3.2-8.2 7.9v23.7h-9.3v-24.5c0-4.5-2.4-7.1-6.7-7.1-4.7 0-8.2 3.1-8.2 7.9v23.7h-9.3v-39.2h8.9l.2 3.1c2.6-2.5 6.5-3.8 10.4-3.8 5 0 9.1 1.9 11.4 5.3 3.1-3.4 7.7-5.3 12.9-5.3 8.8 0 14.1 5.7 14.1 14.4v25.5h-9.5z"/>
  </g>
</svg>